<svg width="0" height="0" class="hidden">
    <symbol version="1.1" xmlns="http://www.w3.org/2000/svg" xmlns:xlink="http://www.w3.org/1999/xlink"
        viewBox="0 0 20 20" id="github">
        <title>github [#142]</title>
        <desc>Created with Sketch.</desc>
        <defs></defs>
        <g id="Page-1" stroke="none" stroke-width="1" fill="none" fill-rule="evenodd">
            <g id="Dribbble-Light-Preview" transform="translate(-140.000000, -7559.000000)" fill="currentColor">
                <g id="icons" transform="translate(56.000000, 160.000000)">
                    <path
                        d="M94,7399 C99.523,7399 104,7403.59 104,7409.253 C104,7413.782 101.138,7417.624 97.167,7418.981 C96.66,7419.082 96.48,7418.762 96.48,7418.489 C96.48,7418.151 96.492,7417.047 96.492,7415.675 C96.492,7414.719 96.172,7414.095 95.813,7413.777 C98.04,7413.523 100.38,7412.656 100.38,7408.718 C100.38,7407.598 99.992,7406.684 99.35,7405.966 C99.454,7405.707 99.797,7404.664 99.252,7403.252 C99.252,7403.252 98.414,7402.977 96.505,7404.303 C95.706,7404.076 94.85,7403.962 94,7403.958 C93.15,7403.962 92.295,7404.076 91.497,7404.303 C89.586,7402.977 88.746,7403.252 88.746,7403.252 C88.203,7404.664 88.546,7405.707 88.649,7405.966 C88.01,7406.684 87.619,7407.598 87.619,7408.718 C87.619,7412.646 89.954,7413.526 92.175,7413.785 C91.889,7414.041 91.63,7414.493 91.54,7415.156 C90.97,7415.418 89.522,7415.871 88.63,7414.304 C88.63,7414.304 88.101,7413.319 87.097,7413.247 C87.097,7413.247 86.122,7413.234 87.029,7413.87 C87.029,7413.87 87.684,7414.185 88.139,7415.37 C88.139,7415.37 88.726,7417.2 91.508,7416.58 C91.513,7417.437 91.522,7418.245 91.522,7418.489 C91.522,7418.76 91.338,7419.077 90.839,7418.982 C86.865,7417.627 84,7413.783 84,7409.253 C84,7403.59 88.478,7399 94,7399"
                        id="github-[#142]"></path>
                </g>
            </g>
        </g>
    </symbol>
    <symbol fill="none" xmlns="http://www.w3.org/2000/svg" viewBox="0 0 24 24" id="close">
        <path
            d="M20.7457 3.32851C20.3552 2.93798 19.722 2.93798 19.3315 3.32851L12.0371 10.6229L4.74275 3.32851C4.35223 2.93798 3.71906 2.93798 3.32854 3.32851C2.93801 3.71903 2.93801 4.3522 3.32854 4.74272L10.6229 12.0371L3.32856 19.3314C2.93803 19.722 2.93803 20.3551 3.32856 20.7457C3.71908 21.1362 4.35225 21.1362 4.74277 20.7457L12.0371 13.4513L19.3315 20.7457C19.722 21.1362 20.3552 21.1362 20.7457 20.7457C21.1362 20.3551 21.1362 19.722 20.7457 19.3315L13.4513 12.0371L20.7457 4.74272C21.1362 4.3522 21.1362 3.71903 20.7457 3.32851Z"
            fill="currentColor"></path>
    </symbol>

    <symbol fill="none" xmlns="http://www.w3.org/2000/svg" viewBox="0 0 24 24" id="burger-menu">
        <path fill-rule="evenodd" clip-rule="evenodd"
            d="M4 5C3.44772 5 3 5.44772 3 6C3 6.55228 3.44772 7 4 7H20C20.5523 7 21 6.55228 21 6C21 5.44772 20.5523 5 20 5H4ZM7 12C7 11.4477 7.44772 11 8 11H20C20.5523 11 21 11.4477 21 12C21 12.5523 20.5523 13 20 13H8C7.44772 13 7 12.5523 7 12ZM13 18C13 17.4477 13.4477 17 14 17H20C20.5523 17 21 17.4477 21 18C21 18.5523 20.5523 19 20 19H14C13.4477 19 13 18.5523 13 18Z"
            fill="currentColor"></path>
    </symbol>
    <symbol fill="none" xmlns="http://www.w3.org/2000/svg" viewBox="0 0 24 24" id="instagram">
        <path fill-rule="evenodd" clip-rule="evenodd"
            d="M12 18C15.3137 18 18 15.3137 18 12C18 8.68629 15.3137 6 12 6C8.68629 6 6 8.68629 6 12C6 15.3137 8.68629 18 12 18ZM12 16C14.2091 16 16 14.2091 16 12C16 9.79086 14.2091 8 12 8C9.79086 8 8 9.79086 8 12C8 14.2091 9.79086 16 12 16Z"
            fill="#0F0F0F"></path>
        <path
            d="M18 5C17.4477 5 17 5.44772 17 6C17 6.55228 17.4477 7 18 7C18.5523 7 19 6.55228 19 6C19 5.44772 18.5523 5 18 5Z"
            fill="#0F0F0F"></path>
        <path fill-rule="evenodd" clip-rule="evenodd"
            d="M1.65396 4.27606C1 5.55953 1 7.23969 1 10.6V13.4C1 16.7603 1 18.4405 1.65396 19.7239C2.2292 20.8529 3.14708 21.7708 4.27606 22.346C5.55953 23 7.23969 23 10.6 23H13.4C16.7603 23 18.4405 23 19.7239 22.346C20.8529 21.7708 21.7708 20.8529 22.346 19.7239C23 18.4405 23 16.7603 23 13.4V10.6C23 7.23969 23 5.55953 22.346 4.27606C21.7708 3.14708 20.8529 2.2292 19.7239 1.65396C18.4405 1 16.7603 1 13.4 1H10.6C7.23969 1 5.55953 1 4.27606 1.65396C3.14708 2.2292 2.2292 3.14708 1.65396 4.27606ZM13.4 3H10.6C8.88684 3 7.72225 3.00156 6.82208 3.0751C5.94524 3.14674 5.49684 3.27659 5.18404 3.43597C4.43139 3.81947 3.81947 4.43139 3.43597 5.18404C3.27659 5.49684 3.14674 5.94524 3.0751 6.82208C3.00156 7.72225 3 8.88684 3 10.6V13.4C3 15.1132 3.00156 16.2777 3.0751 17.1779C3.14674 18.0548 3.27659 18.5032 3.43597 18.816C3.81947 19.5686 4.43139 20.1805 5.18404 20.564C5.49684 20.7234 5.94524 20.8533 6.82208 20.9249C7.72225 20.9984 8.88684 21 10.6 21H13.4C15.1132 21 16.2777 20.9984 17.1779 20.9249C18.0548 20.8533 18.5032 20.7234 18.816 20.564C19.5686 20.1805 20.1805 19.5686 20.564 18.816C20.7234 18.5032 20.8533 18.0548 20.9249 17.1779C20.9984 16.2777 21 15.1132 21 13.4V10.6C21 8.88684 20.9984 7.72225 20.9249 6.82208C20.8533 5.94524 20.7234 5.49684 20.564 5.18404C20.1805 4.43139 19.5686 3.81947 18.816 3.43597C18.5032 3.27659 18.0548 3.14674 17.1779 3.0751C16.2777 3.00156 15.1132 3 13.4 3Z"
            fill="#0F0F0F"></path>
    </symbol>
    <symbol fill="none" xmlns="http://www.w3.org/2000/svg" viewBox="0 0 24 24" id="linkedin">
        <path
            d="M6.5 8C7.32843 8 8 7.32843 8 6.5C8 5.67157 7.32843 5 6.5 5C5.67157 5 5 5.67157 5 6.5C5 7.32843 5.67157 8 6.5 8Z"
            fill="currentColor"></path>
        <path
            d="M5 10C5 9.44772 5.44772 9 6 9H7C7.55228 9 8 9.44771 8 10V18C8 18.5523 7.55228 19 7 19H6C5.44772 19 5 18.5523 5 18V10Z"
            fill="currentColor"></path>
        <path
            d="M11 19H12C12.5523 19 13 18.5523 13 18V13.5C13 12 16 11 16 13V18.0004C16 18.5527 16.4477 19 17 19H18C18.5523 19 19 18.5523 19 18V12C19 10 17.5 9 15.5 9C13.5 9 13 10.5 13 10.5V10C13 9.44771 12.5523 9 12 9H11C10.4477 9 10 9.44772 10 10V18C10 18.5523 10.4477 19 11 19Z"
            fill="currentColor"></path>
        <path fill-rule="evenodd" clip-rule="evenodd"
            d="M20 1C21.6569 1 23 2.34315 23 4V20C23 21.6569 21.6569 23 20 23H4C2.34315 23 1 21.6569 1 20V4C1 2.34315 2.34315 1 4 1H20ZM20 3C20.5523 3 21 3.44772 21 4V20C21 20.5523 20.5523 21 20 21H4C3.44772 21 3 20.5523 3 20V4C3 3.44772 3.44772 3 4 3H20Z"
            fill="currentColor"></path>
    </symbol>

    <symbol fill="none" xmlns="http://www.w3.org/2000/svg" viewBox="0 0 24 24" id="moon">
        <path
            d="M12 22C17.5228 22 22 17.5228 22 12C22 11.5373 21.3065 11.4608 21.0672 11.8568C19.9289 13.7406 17.8615 15 15.5 15C11.9101 15 9 12.0899 9 8.5C9 6.13845 10.2594 4.07105 12.1432 2.93276C12.5392 2.69347 12.4627 2 12 2C6.47715 2 2 6.47715 2 12C2 17.5228 6.47715 22 12 22Z"
            fill="#ffffff"></path>
    </symbol>
    <symbol fill="none" xmlns="http://www.w3.org/2000/svg" viewBox="0 0 24 24" id="sun">
        <g id="Environment / Sun">
            <path id="Vector"
                d="M12 4V2M12 20V22M6.41421 6.41421L5 5M17.728 17.728L19.1422 19.1422M4 12H2M20 12H22M17.7285 6.41421L19.1427 5M6.4147 17.728L5.00049 19.1422M12 17C9.23858 17 7 14.7614 7 12C7 9.23858 9.23858 7 12 7C14.7614 7 17 9.23858 17 12C17 14.7614 14.7614 17 12 17Z"
                stroke="#FFA500" stroke-width="2" stroke-linecap="round" stroke-linejoin="round"></path>
        </g>
    </symbol>

    <symbol fill="none" xmlns="http://www.w3.org/2000/svg" viewBox="0 0 32 32" id="css">
        <path d="M6 28L4 3H28L26 28L16 31L6 28Z" fill="#1172B8"></path>
        <path d="M26 5H16V29.5L24 27L26 5Z" fill="#33AADD"></path>
        <path
            d="M19.5 17.5H9.5L9 14L17 11.5H9L8.5 8.5H24L23.5 12L17 14.5H23L22 24L16 26L10 24L9.5 19H12.5L13 21.5L16 22.5L19 21.5L19.5 17.5Z"
            fill="white"></path>
    </symbol>

    <symbol xmlns="http://www.w3.org/2000/svg" fill="none" viewBox="0 0 16 16" id="github">
        <path fill="currentColor" fill-rule="evenodd"
            d="M8 1C4.133 1 1 4.13 1 7.993c0 3.09 2.006 5.71 4.787 6.635.35.064.478-.152.478-.337 0-.166-.006-.606-.01-1.19-1.947.423-2.357-.937-2.357-.937-.319-.808-.778-1.023-.778-1.023-.635-.434.048-.425.048-.425.703.05 1.073.72 1.073.72.624 1.07 1.638.76 2.037.582.063-.452.244-.76.444-.935-1.554-.176-3.188-.776-3.188-3.456 0-.763.273-1.388.72-1.876-.072-.177-.312-.888.07-1.85 0 0 .586-.189 1.924.716A6.711 6.711 0 018 4.381c.595.003 1.194.08 1.753.236 1.336-.905 1.923-.717 1.923-.717.382.963.142 1.674.07 1.85.448.49.72 1.114.72 1.877 0 2.686-1.638 3.278-3.197 3.45.251.216.475.643.475 1.296 0 .934-.009 1.688-.009 1.918 0 .187.127.404.482.336A6.996 6.996 0 0015 7.993 6.997 6.997 0 008 1z"
            clip-rule="evenodd"></path>
    </symbol>

    <symbol fill="none" xmlns="http://www.w3.org/2000/svg" viewBox="0 0 32 32" id="html">
        <path d="M6 28L4 3H28L26 28L16 31L6 28Z" fill="#E44D26"></path>
        <path d="M26 5H16V29.5L24 27L26 5Z" fill="#F16529"></path>
        <path
            d="M9.5 17.5L8.5 8H24L23.5 11H11.5L12 14.5H23L22 24L16 26L10 24L9.5 19H12.5L13 21.5L16 22.5L19 21.5L19.5 17.5H9.5Z"
            fill="white"></path>
    </symbol>
    <symbol fill="none" xmlns="http://www.w3.org/2000/svg" viewBox="0 0 32 32" id="js">
        <rect x="2" y="2" width="28" height="28" fill="#FFCA28"></rect>
        <path
            d="M19 25.2879L21.0615 23.9237C21.2231 24.4313 22.2462 25.6368 23.5385 25.6368C24.8308 25.6368 25.4308 24.931 25.4308 24.463C25.4308 23.1878 24.1112 22.7382 23.4774 22.5223C23.374 22.4871 23.289 22.4581 23.2308 22.4328C23.2009 22.4198 23.1558 22.4025 23.0979 22.3804C22.393 22.1111 19.7923 21.1175 19.7923 18.2373C19.7923 15.065 22.8538 14.7002 23.5462 14.7002C23.9991 14.7002 26.1769 14.7557 27.2615 16.7939L25.2615 18.1898C24.8231 17.3015 24.0946 17.0081 23.6462 17.0081C22.5385 17.0081 22.3077 17.8201 22.3077 18.1898C22.3077 19.227 23.5112 19.6919 24.5273 20.0844C24.7932 20.1871 25.0462 20.2848 25.2615 20.3866C26.3692 20.91 28 21.7666 28 24.463C28 25.8136 26.8672 28.0002 24.0154 28.0002C20.1846 28.0002 19.1692 25.7003 19 25.2879Z"
            fill="#3E3E3E"></path>
        <path
            d="M9 25.5587L11.1487 24.1953C11.317 24.7026 11.9713 25.638 12.9205 25.638C13.8698 25.638 14.3557 24.663 14.3557 24.1953V15.0002H16.9982V24.1953C17.041 25.4636 16.3376 28.0002 13.2332 28.0002C10.379 28.0002 9.19242 26.3039 9 25.5587Z"
            fill="#3E3E3E"></path>
    </symbol>

    <symbol fill="none" xmlns="http://www.w3.org/2000/svg" viewBox="0 -0.5 25 25" id="link">
        <path
            d="M14.5454 9.95475C14.2525 9.66186 13.7776 9.66188 13.4847 9.95478C13.1919 10.2477 13.1919 10.7226 13.4848 11.0154L14.5454 9.95475ZM14.0151 15.0291L13.4848 14.4987L13.4848 14.4988L14.0151 15.0291ZM10.9851 18.0591L11.5154 18.5894L10.9851 18.0591ZM6.44109 13.5151L6.97142 14.0454H6.97142L6.44109 13.5151ZM8.48642 12.5304C8.77932 12.2375 8.77932 11.7627 8.48642 11.4698C8.19353 11.1769 7.71866 11.1769 7.42576 11.4698L8.48642 12.5304ZM10.4548 14.0454C10.7477 14.3383 11.2226 14.3383 11.5154 14.0454C11.8083 13.7525 11.8083 13.2776 11.5154 12.9847L10.4548 14.0454ZM10.9851 8.97109L11.5154 9.50144L11.5154 9.50142L10.9851 8.97109ZM14.0151 5.94109L14.5454 6.47142L14.0151 5.94109ZM18.5591 5.94109L18.0288 6.47142V6.47142L18.5591 5.94109ZM18.5591 10.4851L19.0894 11.0154L18.5591 10.4851ZM16.5138 11.4698C16.2209 11.7627 16.2209 12.2375 16.5138 12.5304C16.8067 12.8233 17.2815 12.8233 17.5744 12.5304L16.5138 11.4698ZM13.4848 11.0154C13.9467 11.4773 14.2062 12.1038 14.2062 12.7571H15.7062C15.7062 11.706 15.2887 10.698 14.5454 9.95475L13.4848 11.0154ZM14.2062 12.7571C14.2062 13.4103 13.9467 14.0368 13.4848 14.4987L14.5454 15.5594C15.2887 14.8162 15.7062 13.8082 15.7062 12.7571H14.2062ZM13.4848 14.4988L10.4548 17.5288L11.5154 18.5894L14.5454 15.5594L13.4848 14.4988ZM10.4548 17.5288C9.49287 18.4907 7.93332 18.4907 6.97142 17.5288L5.91076 18.5894C7.45845 20.1371 9.96774 20.1371 11.5154 18.5894L10.4548 17.5288ZM6.97142 17.5288C6.00953 16.5669 6.00953 15.0073 6.97142 14.0454L5.91076 12.9848C4.36308 14.5324 4.36308 17.0417 5.91076 18.5894L6.97142 17.5288ZM6.97142 14.0454L8.48642 12.5304L7.42576 11.4698L5.91076 12.9848L6.97142 14.0454ZM11.5154 12.9847C11.0535 12.5228 10.794 11.8963 10.794 11.2431H9.29396C9.29396 12.2942 9.71152 13.3022 10.4548 14.0454L11.5154 12.9847ZM10.794 11.2431C10.794 10.5898 11.0535 9.96335 11.5154 9.50144L10.4548 8.44075C9.71152 9.18396 9.29396 10.192 9.29396 11.2431H10.794ZM11.5154 9.50142L14.5454 6.47142L13.4848 5.41076L10.4548 8.44076L11.5154 9.50142ZM14.5454 6.47142C15.5073 5.50953 17.0669 5.50953 18.0288 6.47142L19.0894 5.41076C17.5417 3.86308 15.0324 3.86308 13.4848 5.41076L14.5454 6.47142ZM18.0288 6.47142C18.9907 7.43332 18.9907 8.99287 18.0288 9.95476L19.0894 11.0154C20.6371 9.46774 20.6371 6.95845 19.0894 5.41076L18.0288 6.47142ZM18.0288 9.95476L16.5138 11.4698L17.5744 12.5304L19.0894 11.0154L18.0288 9.95476Z"
            fill="#000000"></path>
    </symbol>

    <symbol fill="none" xmlns="http://www.w3.org/2000/svg" viewBox="0 0 24 24" id="linkedin">
        <path
            d="M6.5 8C7.32843 8 8 7.32843 8 6.5C8 5.67157 7.32843 5 6.5 5C5.67157 5 5 5.67157 5 6.5C5 7.32843 5.67157 8 6.5 8Z"
            fill="#0F0F0F"></path>
        <path
            d="M5 10C5 9.44772 5.44772 9 6 9H7C7.55228 9 8 9.44771 8 10V18C8 18.5523 7.55228 19 7 19H6C5.44772 19 5 18.5523 5 18V10Z"
            fill="#0F0F0F"></path>
        <path
            d="M11 19H12C12.5523 19 13 18.5523 13 18V13.5C13 12 16 11 16 13V18.0004C16 18.5527 16.4477 19 17 19H18C18.5523 19 19 18.5523 19 18V12C19 10 17.5 9 15.5 9C13.5 9 13 10.5 13 10.5V10C13 9.44771 12.5523 9 12 9H11C10.4477 9 10 9.44772 10 10V18C10 18.5523 10.4477 19 11 19Z"
            fill="#0F0F0F"></path>
        <path fill-rule="evenodd" clip-rule="evenodd"
            d="M20 1C21.6569 1 23 2.34315 23 4V20C23 21.6569 21.6569 23 20 23H4C2.34315 23 1 21.6569 1 20V4C1 2.34315 2.34315 1 4 1H20ZM20 3C20.5523 3 21 3.44772 21 4V20C21 20.5523 20.5523 21 20 21H4C3.44772 21 3 20.5523 3 20V4C3 3.44772 3.44772 3 4 3H20Z"
            fill="#0F0F0F"></path>
    </symbol>
    <symbol version="1.1" id="email" xmlns="http://www.w3.org/2000/svg" xmlns:xlink="http://www.w3.org/1999/xlink"
        xml:space="preserve" viewBox="0 0 512 512">
        <g>
            <path d="M510.678,112.275c-2.308-11.626-7.463-22.265-14.662-31.054c-1.518-1.915-3.104-3.63-4.823-5.345
		c-12.755-12.818-30.657-20.814-50.214-20.814H71.021c-19.557,0-37.395,7.996-50.21,20.814c-1.715,1.715-3.301,3.43-4.823,5.345
		C8.785,90.009,3.63,100.649,1.386,112.275C0.464,116.762,0,121.399,0,126.087V385.92c0,9.968,2.114,19.55,5.884,28.203
		c3.497,8.26,8.653,15.734,14.926,22.001c1.59,1.586,3.169,3.044,4.892,4.494c12.286,10.175,28.145,16.32,45.319,16.32h369.958
		c17.18,0,33.108-6.145,45.323-16.384c1.718-1.386,3.305-2.844,4.891-4.43c6.27-6.267,11.425-13.741,14.994-22.001v-0.064
		c3.769-8.653,5.812-18.171,5.812-28.138V126.087C512,121.399,511.543,116.762,510.678,112.275z M46.509,101.571
		c6.345-6.338,14.866-10.175,24.512-10.175h369.958c9.646,0,18.242,3.837,24.512,10.175c1.122,1.129,2.179,2.387,3.112,3.637
		L274.696,274.203c-5.348,4.687-11.954,7.002-18.696,7.002c-6.674,0-13.276-2.315-18.695-7.002L43.472,105.136
		C44.33,103.886,45.387,102.7,46.509,101.571z M36.334,385.92V142.735L176.658,265.15L36.405,387.435
		C36.334,386.971,36.334,386.449,36.334,385.92z M440.979,420.597H71.021c-6.281,0-12.158-1.651-17.174-4.552l147.978-128.959
		l13.815,12.018c11.561,10.046,26.028,15.134,40.36,15.134c14.406,0,28.872-5.088,40.432-15.134l13.808-12.018l147.92,128.959
		C453.137,418.946,447.26,420.597,440.979,420.597z M475.666,385.92c0,0.529,0,1.051-0.068,1.515L335.346,265.221L475.666,142.8
		V385.92z"></path>
        </g>
    </symbol>

    <symbol fill="none" xmlns="http://www.w3.org/2000/svg" viewBox="0 0 24 24" id="arrow-right">
        <path fill-rule="evenodd" clip-rule="evenodd"
            d="M13.4697 5.46967C13.7626 5.17678 14.2374 5.17678 14.5303 5.46967L20.5303 11.4697C20.8232 11.7626 20.8232 12.2374 20.5303 12.5303L14.5303 18.5303C14.2374 18.8232 13.7626 18.8232 13.4697 18.5303C13.1768 18.2374 13.1768 17.7626 13.4697 17.4697L18.1893 12.75H4C3.58579 12.75 3.25 12.4142 3.25 12C3.25 11.5858 3.58579 11.25 4 11.25H18.1893L13.4697 6.53033C13.1768 6.23744 13.1768 5.76256 13.4697 5.46967Z"
            fill="#1C274C"></path>
    </symbol>

</svg>